<svg xmlns="http://www.w3.org/2000/svg" viewBox="0 0 374.5 88.88"><defs><style>.cls-1{fill:#e43d30;}.cls-2{fill:#011e41;}</style></defs><title>Asset 1</title><g id="Layer_2" data-name="Layer 2"><g id="Layer_1-2" data-name="Layer 1"><path class="cls-1" d="M28.92,31.33a13.45,13.45,0,0,1,3.18.84,7.31,7.31,0,0,1,2,1.18,6,6,0,0,1,1.15,1.34L36,36c0,.2-.29.17-.72-.08s-.86-.51-1.27-.77a9.18,9.18,0,0,0-4-1.3,13.27,13.27,0,0,0-4.41.27,6.82,6.82,0,0,0-3.25,1.72,2.67,2.67,0,0,0-.61,3,6.89,6.89,0,0,0,2.18,3.06,20.91,20.91,0,0,0,3.48,2.33c1.28.69,2.55,1.32,3.83,1.88a19.38,19.38,0,0,1,3.14,1.68L37,46.37c.72-.38,1.35-.74,1.92-1.07a18.93,18.93,0,0,1,1.72-.92l2-1a.63.63,0,0,1,.26-.08c.08,0,.08.07,0,.2a3.29,3.29,0,0,1-.61.61c-.33.28-.85.67-1.57,1.18-.36.26-1,.69-2,1.31l-3.14,2A7.34,7.34,0,0,1,37,50.39a6.56,6.56,0,0,1,.65,1.8,2.84,2.84,0,0,1-.35,2A13.46,13.46,0,0,1,33.9,58a13.92,13.92,0,0,1-3.52,1.91A4.2,4.2,0,0,1,28,60a3.76,3.76,0,0,1-2.07-1.23,2.71,2.71,0,0,1-.42-2.49,7.57,7.57,0,0,1,1.41-2.45,18.26,18.26,0,0,1,2.3-2.26c.87-.71,1.63-1.35,2.3-1.91a11.36,11.36,0,0,0-2.68-1.87q-2-1.11-4.1-2.45A28.49,28.49,0,0,1,21,42.43a4.94,4.94,0,0,1-1.83-3.07,5.22,5.22,0,0,1,.42-3.25,7.85,7.85,0,0,1,2.14-2.76A9.39,9.39,0,0,1,25,31.59,8.82,8.82,0,0,1,28.92,31.33Zm-.69,26.25a2.45,2.45,0,0,0,1.92,0,7.35,7.35,0,0,0,2-1.11,9.88,9.88,0,0,0,1.68-1.61,5.22,5.22,0,0,0,1-1.56A1.32,1.32,0,0,0,34.4,52a7.25,7.25,0,0,0-1.34-1.19c-.56.41-1.2.93-1.92,1.57a16.94,16.94,0,0,0-1.87,1.95,8,8,0,0,0-1.19,1.91Q27.71,57.13,28.23,57.58Z"/><path class="cls-1" d="M41,29.64c0-.46.12-.73.38-.8a1.17,1.17,0,0,1,.8,0,2.86,2.86,0,0,1,.85.49c.28.23.47.4.57.5a35.54,35.54,0,0,1-.15,5.44q-.31,3.44-.31,8.57A28.09,28.09,0,0,1,44.08,41c.41-1.12.88-2.26,1.42-3.41a26.53,26.53,0,0,1,1.76-3.21A12.38,12.38,0,0,1,49.13,32a2.62,2.62,0,0,1,1.76-.88c.56,0,1.07.43,1.53,1.3A6.58,6.58,0,0,1,52.69,34c.08.79.13,1.75.15,2.87s.07,2.37.12,3.75.13,2.78.23,4.21c.46-1.12,1-2.36,1.57-3.71a30,30,0,0,1,1.87-3.68,9.54,9.54,0,0,1,2.15-2.56,2.29,2.29,0,0,1,2.45-.39c.4.16.69.63.84,1.42s.28,1.72.38,2.79.22,2.21.35,3.41a13.39,13.39,0,0,0,.72,3.25,5.75,5.75,0,0,0,1.53,2.34,3.21,3.21,0,0,0,2.68.65c.62,0,1.06,0,1.34,0a2.31,2.31,0,0,1,.62.11c.12.05.17.13.15.23a1.86,1.86,0,0,0,0,.46q-2.83,1.46-4.63,1A4.76,4.76,0,0,1,62.34,48a11.15,11.15,0,0,1-1.46-4,41.2,41.2,0,0,1-.57-4.63c-.1-.66-.32-.94-.65-.84a3,3,0,0,0-1.23,1.15,25.25,25.25,0,0,0-1.57,2.49c-.56,1-1.09,2.05-1.6,3.17s-1,2.21-1.34,3.26-.68,1.9-.88,2.56a.89.89,0,0,1-1.23.38,1.6,1.6,0,0,1-1.07-1.14,13.34,13.34,0,0,1-.34-3q0-1.8,0-3.63c0-1.23.06-2.41.11-3.56a28.82,28.82,0,0,0,0-3,4.62,4.62,0,0,0-.31-1.68c-.15-.31-.43-.23-.84.23A30.67,30.67,0,0,0,47,40.28a48.89,48.89,0,0,0-2,5.25c-.56,1.81-1,3.62-1.42,5.43a36.13,36.13,0,0,0-.72,4.94c-.87.2-1.49.09-1.84-.35a8.2,8.2,0,0,1-.92-1.34c.1-.66.19-2,.27-3.86s.15-4.1.23-6.55.15-4.95.23-7.5S41,31.53,41,29.64Z"/><path class="cls-1" d="M86.45,44.44H84a39.57,39.57,0,1,1-11.59-28A39.47,39.47,0,0,1,84,44.44h4.86A44.44,44.44,0,0,0,0,44.44H0a44.44,44.44,0,0,0,88.88,0Z"/><path class="cls-2" d="M136,19.6c-1.63-2.71-6.1-5.29-11.26-5.29-6.71,0-9.83,2.92-9.83,5.84,0,4.13,4.88,5.22,10.58,6,10,1.28,19.13,3.73,19.13,15.12,0,10.58-9.37,15.13-19.95,15.13-9.7,0-17.23-3-20.69-11.67l7.47-3.87c2.17,5.23,7.53,7.53,13.36,7.53,5.63,0,10.92-2,10.92-7.12,0-4.48-4.68-6.24-11-7-9.7-1.09-18.65-3.8-18.65-14.38,0-8.89,9.63-13.37,18.38-13.37,7.46,0,15,2.11,18.65,9.43Z"/><path class="cls-2" d="M160.36,41.17v14h-9V7.67c7.39,0,15-.07,22.38-.07,23.27,0,23.4,33.23,0,33.57Zm0-8.2h13.43c11.4,0,11.4-16.83,0-16.83H160.36Z"/><path class="cls-2" d="M243.25,31.68c-.2,12.28-7.66,24.55-24.35,24.55s-24.42-12-24.42-24.48c0-15,10.79-25,24.62-25C235.31,6.92,243.45,19.33,243.25,31.68ZM218.9,48c11.19,0,15.33-8.34,15.53-16.21S230,15.06,219.1,14.86c-10,0-16.14,7.52-15.8,17C203.5,39.68,207.78,48,218.9,48Z"/><path class="cls-2" d="M292.36,55.15H282.12L268.35,39.27h-9.09V55.15h-8.95V7.6c7.59,0,15,.07,22.58.07,11.19,0,17.1,7.59,17.1,15.73,0,6.51-3,13.09-12,14.93l14.38,16.21ZM259.26,16V31.2h13.63c5.7,0,8.14-3.8,8.14-7.59s-2.51-7.6-8.14-7.6Z"/><path class="cls-2" d="M308.17,15.81H293.11V7.67h39.07v8.14H317.12V55.15h-8.95Z"/><path class="cls-2" d="M365.89,19.6c-1.63-2.71-6.11-5.29-11.26-5.29-6.72,0-9.84,2.92-9.84,5.84,0,4.13,4.89,5.22,10.59,6,10,1.28,19.12,3.73,19.12,15.12,0,10.58-9.36,15.13-19.94,15.13-9.7,0-17.23-3-20.69-11.67l7.47-3.87c2.17,5.23,7.52,7.53,13.36,7.53,5.63,0,10.92-2,10.92-7.12,0-4.48-4.68-6.24-11-7-9.7-1.09-18.65-3.8-18.65-14.38,0-8.89,9.63-13.37,18.38-13.37,7.46,0,15,2.11,18.65,9.43Z"/><path class="cls-2" d="M120.62,67.72l-6.39,8.51h-.73l-6.24-8.54V82h-3.7V62.35h4.26L114,70.77l6.13-8.42h4.23V82h-3.69Z"/><path class="cls-2" d="M143.07,81.92H128.4V62.32h14.67V65.9h-11v4.51h10.61v3.44H132.07v4.43h11Z"/><path class="cls-2" d="M163.52,67.72l-6.39,8.51h-.73l-6.24-8.54V82h-3.7V62.35h4.26l6.13,8.42L163,62.35h4.23V82h-3.69Z"/><path class="cls-2" d="M190.29,72.23c-.09,5.07-3.17,10.14-10.06,10.14s-10.08-5-10.08-10.11a9.9,9.9,0,0,1,10.17-10.33C187,62,190.37,67.13,190.29,72.23ZM180.23,79c4.62,0,6.33-3.45,6.42-6.69s-1.82-6.92-6.33-7c-4.15,0-6.67,3.1-6.53,7C173.88,75.53,175.64,79,180.23,79Z"/><path class="cls-2" d="M210.56,81.92h-4.23l-5.68-6.55h-3.76v6.55H193.2V62.29c3.13,0,6.19,0,9.32,0,4.62,0,7.06,3.13,7.06,6.49a5.81,5.81,0,0,1-5,6.16l5.94,6.7ZM196.89,65.76V72h5.63a3.14,3.14,0,1,0,0-6.27Z"/><path class="cls-2" d="M226.72,78.22H216.47l-1.68,3.7h-4l8.8-19.6h4l8.79,19.6h-4Zm-5.13-11.79L218,74.78h7.28Z"/><path class="cls-2" d="M243.55,62.32c3.86,0,6.74,1.73,6.74,5.68a4,4,0,0,1-2.54,3.78,4.81,4.81,0,0,1,3.13,4.37c0,4.4-3.27,5.77-7.33,5.77h-9.3V62.32Zm-5.66,7.87h5.66c2.32,0,3.08-1,3.08-2.1,0-.9-.73-2.41-3.08-2.41h-5.66Zm0,8.28h5.66c1.48,0,3.66-.5,3.66-2.35s-2.18-2.69-3.66-2.69h-5.66Z"/><path class="cls-2" d="M253.91,81.92V62.32h3.66v19.6Z"/><path class="cls-2" d="M265.36,62.32V78.5h10.08v3.42H261.66V62.32Z"/><path class="cls-2" d="M277.68,81.92V62.32h3.67v19.6Z"/><path class="cls-2" d="M299.13,78.22H288.88l-1.68,3.7h-4L292,62.32h4l8.79,19.6h-4ZM294,66.43l-3.64,8.35h7.28Z"/><path class="cls-2" d="M310.94,80.15a2,2,0,0,1-4,0A2,2,0,0,1,310.94,80.15Z"/><path class="cls-2" d="M329.46,79.45A10.22,10.22,0,0,1,322,82.37c-7.28,0-10.39-5-10.39-10.11S314.89,61.93,322,61.93a9.94,9.94,0,0,1,7.19,3l-2.46,2.38A6.8,6.8,0,0,0,322,65.45c-4.76,0-6.75,3.53-6.75,6.81s1.93,6.63,6.75,6.63a7.14,7.14,0,0,0,4.92-2Z"/><path class="cls-2" d="M350.26,72.23c-.08,5.07-3.16,10.14-10.05,10.14s-10.08-5-10.08-10.11a9.89,9.89,0,0,1,10.16-10.33C347,62,350.35,67.13,350.26,72.23ZM340.21,79c4.62,0,6.33-3.45,6.41-6.69s-1.82-6.92-6.33-7c-4.14,0-6.66,3.1-6.52,7C333.85,75.53,335.62,79,340.21,79Z"/><path class="cls-2" d="M370.23,67.72l-6.39,8.51h-.73l-6.24-8.54V82h-3.7V62.35h4.26l6.13,8.42,6.13-8.42h4.23V82h-3.69Z"/></g></g></svg>